# xmcd CD database file
#
# Track frame offsets:
#	150
#	4226
#	25980
#	50323
#	73638
#	83943
#	103838
#	115878
#	131576
#	150597
#	166462
#
# Disc length: 2617 seconds
#
# Revision: 0
# Processed by: cddbd v1.5.2PL0 Copyright (c) Steve Scherf et al.
# Submitted via: CDex 1.70beta2
#
DISCID=8c0a370b
DTITLE=Hjaltalín - Sleepdrunk Seasons
DYEAR=2007
DGENRE=Blues
TTITLE0=Sleepdrunk Seasons II
TTITLE1=Traffic Music
TTITLE2=The Boy Next Door
TTITLE3=Goodbye July/Margt að ugga
TTITLE4=Kveldúlfur
TTITLE5=Debussy
TTITLE6=Selur
TTITLE7=Sleepdrunk Seasons I
TTITLE8=The Trees Don't Like the Smoke
TTITLE9=I Lie
TTITLE10=Trailor Music
EXTD=YEAR: 2007
EXTT0=
EXTT1=
EXTT2=
EXTT3=
EXTT4=
EXTT5=
EXTT6=
EXTT7=
EXTT8=
EXTT9=
EXTT10=
PLAYORDER=
